{
    "asset" : {
        "version" : "2.0",
        "generator" : "Khronos glTF Blender I/O v1.2.20"
    },
    "scene" : 0,
    "scenes" : [
        {
            "name" : "Scene",
            "nodes" : [
                0
            ]
        }
    ],
    "nodes" : [
        {
            "translation" : [
                -2.0297839641571045,
                -0.5227661728858948,
                1.981762170791626
            ],
            "name" : "group_0_13757680",
            "mesh" : 0,
            "rotation" : [
                -0.035051170736551285,
                -0.45529818534851074,
                0.04743005335330963,
                0.8883835673332214
            ]
        }
    ],
    "materials" : [
        {
            "name" : "color_13757680",
            "pbrMetallicRoughness" : {}
        }
    ],
    "meshes" : [
        {
            "name" : "group_0_13757680",
            "primitives" : [
                {
                    "material" : 0,
                    "indices" : 2,
                    "attributes" : {
                        "NORMAL" : 0,
                        "POSITION" : 1
                    }
                }
            ]
        }
    ],
    "accessors" : [
        {
            "type" : "VEC3",
            "count" : 8912,
            "componentType" : 5126,
            "bufferView" : 0
        },
        {
            "bufferView" : 1,
            "min" : [
                1.718000054359436,
                2.0999999046325684,
                -18.700000762939453
            ],
            "type" : "VEC3",
            "componentType" : 5126,
            "count" : 8912,
            "max" : [
                15.800000190734863,
                31.38599967956543,
                6.099999904632568
            ]
        },
        {
            "type" : "SCALAR",
            "count" : 53424,
            "componentType" : 5123,
            "bufferView" : 2
        }
    ],
    "bufferViews" : [
        {
            "buffer" : 0,
            "byteLength" : 106944,
            "byteOffset" : 0
        },
        {
            "buffer" : 0,
            "byteLength" : 106944,
            "byteOffset" : 106944
        },
        {
            "buffer" : 0,
            "byteLength" : 106848,
            "byteOffset" : 213888
        }
    ],
    "buffers" : [
        {
            "uri" : "data:application/octet-stream;base64,",
            "byteLength" : 320736
        }
    ]
}
